<svg xmlns="http://www.w3.org/2000/svg" x="0px" y="0px"
width="50" height="50"
viewBox="0 0 226 226"
style=" fill:#000000;"><g fill="none" fill-rule="nonzero" stroke="none" stroke-width="1" stroke-linecap="butt" stroke-linejoin="miter" stroke-miterlimit="10" stroke-dasharray="" stroke-dashoffset="0" font-family="none" font-weight="none" font-size="none" text-anchor="none" style="mix-blend-mode: normal"><path d="M0,226v-226h226v226z" fill="none"></path><g fill="#000000"><path d="M36.16,0c-3.58422,0 -6.72703,2.04812 -8.1925,5.085c-1.87156,0.40609 -4.37875,1.04172 -6.92125,1.9775c-2.5425,0.93578 -5.15562,2.17172 -7.48625,4.09625c-2.33062,1.92453 -4.52,4.89078 -4.52,8.61625c0,1.62438 0.26484,3.49594 0.70625,6.4975c0.44141,3.00156 1.07703,6.97422 1.9775,11.44125c1.78328,8.93406 4.53766,20.30469 8.1925,32.06375c7.20375,23.20031 17.49734,48.07797 34.465,58.33625c-0.01766,0.37078 -0.14125,0.74156 -0.14125,1.13c0,5.40281 1.60672,11.84734 4.37875,17.515c1.37719,2.825 3.07219,5.34984 5.22625,7.48625c1.14766,1.14766 2.56016,2.24234 4.09625,2.96625c0.15891,11.75906 1.28891,26.66094 9.605,39.55c9.12828,14.16031 26.94344,24.71875 58.05375,24.71875c28.32062,0 44.89984,-11.70609 53.53375,-25.00125c7.09781,-10.92922 9.11062,-22.3175 9.605,-29.52125c15.36094,-2.13641 27.26125,-15.41391 27.26125,-31.3575c0,-17.40906 -14.23094,-31.64 -31.64,-31.64c-17.42672,0 -31.64,14.23094 -31.64,31.64c0,15.78469 11.68844,28.88562 26.8375,31.21625c-0.54734,6.16203 -2.36594,15.94359 -8.05125,24.71875c-7.18609,11.07047 -19.98687,20.905 -45.90625,20.905c-29.15047,0 -42.99297,-9.11062 -50.42625,-20.6225c-6.76234,-10.47016 -7.99828,-23.60641 -8.1925,-34.7475c1.4125,-0.72391 2.73672,-1.76562 3.81375,-2.825c2.13641,-2.13641 3.84906,-4.66125 5.22625,-7.48625c2.77203,-5.66766 4.37875,-12.11219 4.37875,-17.515c0,-0.38844 -0.12359,-0.75922 -0.14125,-1.13c16.96766,-10.25828 27.26125,-35.13594 34.465,-58.33625c3.65484,-11.75906 6.40922,-23.12969 8.1925,-32.06375c0.90047,-4.46703 1.53609,-8.43969 1.9775,-11.44125c0.44141,-3.00156 0.70625,-4.87312 0.70625,-6.4975c0,-3.72547 -2.18938,-6.69172 -4.52,-8.61625c-2.33062,-1.92453 -4.94375,-3.16047 -7.48625,-4.09625c-2.5425,-0.93578 -5.04969,-1.57141 -6.92125,-1.9775c-0.08828,-0.01766 -0.05297,0.01766 -0.14125,0c-1.46547,-3.00156 -4.48469,-5.085 -8.05125,-5.085c-4.99672,0 -9.04,4.04328 -9.04,9.04c0,4.99672 4.04328,9.04 9.04,9.04c3.05453,0 5.70297,-1.50078 7.345,-3.81375c1.39484,0.31781 3.01922,0.67094 4.66125,1.27125c1.9775,0.72391 3.88438,1.65969 4.94375,2.5425c1.05937,0.88281 1.13,1.23594 1.13,1.695c0,0.17656 -0.14125,2.40125 -0.565,5.22625c-0.42375,2.825 -1.11234,6.53281 -1.9775,10.87625c-1.73031,8.66922 -4.37875,19.84562 -7.91,31.21625c-6.83297,21.99969 -17.67391,44.635 -29.80375,52.68625c-1.04172,-0.77688 -2.15406,-1.39484 -3.24875,-1.695c-3.93734,-1.09469 -7.32734,-0.42375 -10.735,-0.42375c-3.40766,0 -6.79766,-0.65328 -10.735,0.42375c-1.09469,0.30016 -2.20703,0.91812 -3.24875,1.695c-12.12984,-8.05125 -22.97078,-30.68656 -29.80375,-52.68625c-3.53125,-11.37063 -6.17969,-22.54703 -7.91,-31.21625c-0.86516,-4.34344 -1.55375,-8.05125 -1.9775,-10.87625c-0.42375,-2.825 -0.565,-5.04969 -0.565,-5.22625c0,-0.45906 0.07062,-0.81219 1.13,-1.695c1.05937,-0.88281 2.96625,-1.81859 4.94375,-2.5425c1.64203,-0.60031 3.26641,-0.95344 4.66125,-1.27125c1.64203,2.31297 4.29047,3.81375 7.345,3.81375c4.99672,0 9.04,-4.04328 9.04,-9.04c0,-4.99672 -4.04328,-9.04 -9.04,-9.04zM194.36,113c12.51828,0 22.6,10.08172 22.6,22.6c0,12.37703 -9.85219,22.37047 -22.17625,22.6c-0.14125,0 -0.2825,0 -0.42375,0c-12.53594,0 -22.6,-10.08172 -22.6,-22.6c0,-12.51828 10.06406,-22.6 22.6,-22.6zM194.36,122.04c-7.43328,0 -13.56,6.12672 -13.56,13.56c0,7.43328 6.12672,13.56 13.56,13.56c7.43328,0 13.56,-6.12672 13.56,-13.56c0,-7.43328 -6.12672,-13.56 -13.56,-13.56zM66.9525,126.70125c1.44781,0 3.33703,0 5.3675,0c4.07859,0 7.36266,-0.12359 8.33375,0.14125c0.49438,0.14125 0.38844,-0.05297 0.42375,0c0.03531,0.05297 0.2825,0.74156 0.2825,2.40125c0,3.30172 -1.39484,9.18125 -3.53125,13.56c-1.07703,2.18938 -2.29531,3.99031 -3.39,5.085c-0.86516,0.86516 -1.46547,1.04172 -1.83625,1.13c-0.19422,-0.01766 -0.37078,-0.01766 -0.565,0c-0.37078,-0.08828 -0.97109,-0.26484 -1.83625,-1.13c-1.09469,-1.09469 -2.31297,-2.89562 -3.39,-5.085c-2.13641,-4.37875 -3.53125,-10.25828 -3.53125,-13.56c0,-1.65969 0.24719,-2.34828 0.2825,-2.40125c0.03531,-0.05297 -0.07062,0.14125 0.42375,0c0.49437,-0.14125 1.51844,-0.14125 2.96625,-0.14125zM194.36,131.08c2.56016,0 4.52,1.95984 4.52,4.52c0,2.56016 -1.95984,4.52 -4.52,4.52c-2.56016,0 -4.52,-1.95984 -4.52,-4.52c0,-2.56016 1.95984,-4.52 4.52,-4.52z"></path></g></g></svg>
